<svg width="96" height="96" viewBox="0 0 96 96" fill="none" xmlns="http://www.w3.org/2000/svg"><rect x="6" y="6" width="84" height="84" rx="24" fill="url(#g1)"/><circle cx="48" cy="42" r="16" fill="#ffffff" fill-opacity="0.92"/><rect x="30" y="56" width="36" height="6" rx="3" fill="#ffffff" fill-opacity="0.92"/><path d="M41 41C43.2 37.8 46.4 36.2 50.8 36.2C55.2 36.2 58.4 37.8 60.6 41" stroke="#14B8A6" stroke-width="3" stroke-linecap="round"/><defs><linearGradient id="g1" x1="14" y1="14" x2="82" y2="82" gradientUnits="userSpaceOnUse"><stop stop-color="#A7F3D0"/><stop offset="0.5" stop-color="#93C5FD"/><stop offset="1" stop-color="#F9A8D4"/></linearGradient></defs></svg>
EOF && cat > assets/favicon.svg <<'EOF'
<svg width="64" height="64" viewBox="0 0 64 64" fill="none" xmlns="http://www.w3.org/2000/svg"><rect width="64" height="64" rx="16" fill="url(#g)"/><circle cx="32" cy="29" r="10" fill="#ffffff" fill-opacity="0.95"/><rect x="20" y="40" width="24" height="4" rx="2" fill="#ffffff" fill-opacity="0.95"/><defs><linearGradient id="g" x1="8" y1="8" x2="56" y2="56" gradientUnits="userSpaceOnUse"><stop stop-color="#67E8F9"/><stop offset="1" stop-color="#C4B5FD"/></linearGradient></defs></svg>
EOF && cat > assets/app-mockup.svg <<'EOF'
<svg width="560" height="1120" viewBox="0 0 560 1120" fill="none" xmlns="http://www.w3.org/2000/svg"><rect width="560" height="1120" rx="80" fill="#F8FAFC"/><rect x="26" y="26" width="508" height="1068" rx="62" fill="#FFF7FB"/><rect x="200" y="46" width="160" height="36" rx="18" fill="#0B1220"/><text x="70" y="130" font-size="38" font-family="Arial, sans-serif" fill="#0F172A" font-weight="700">心流岛</text><rect x="64" y="160" width="360" height="26" rx="13" fill="#EDE9FE"/><rect x="438" y="154" width="58" height="38" rx="12" fill="#93C5FD"/><rect x="60" y="230" width="440" height="126" rx="24" fill="#FFFFFF" stroke="#E2E8F0"/><rect x="60" y="376" width="440" height="126" rx="24" fill="#FFFFFF" stroke="#E2E8F0"/><rect x="60" y="522" width="440" height="126" rx="24" fill="#FFFFFF" stroke="#E2E8F0"/><rect x="60" y="668" width="440" height="126" rx="24" fill="#FFFFFF" stroke="#E2E8F0"/><rect x="60" y="814" width="440" height="126" rx="24" fill="#FFFFFF" stroke="#E2E8F0"/><rect x="40" y="976" width="480" height="96" rx="30" fill="#FFFFFF" stroke="#E2E8F0"/></svg>
EOF && cat > assets/icon-feature-1.svg <<'EOF'
<svg width="48" height="48" viewBox="0 0 48 48" fill="none" xmlns="http://www.w3.org/2000/svg"><rect width="48" height="48" rx="14" fill="url(#g)"/><path d="M14 32V16h20v16H14z" stroke="#fff" stroke-width="2.6"/><defs><linearGradient id="g" x1="6" y1="6" x2="42" y2="42"><stop stop-color="#22D3EE"/><stop offset="1" stop-color="#2563EB"/></linearGradient></defs></svg>
EOF && cat > assets/icon-feature-2.svg <<'EOF'
<svg width="48" height="48" viewBox="0 0 48 48" fill="none" xmlns="http://www.w3.org/2000/svg"><rect width="48" height="48" rx="14" fill="url(#g)"/><circle cx="24" cy="24" r="9" stroke="#fff" stroke-width="2.6"/><defs><linearGradient id="g" x1="6" y1="6" x2="42" y2="42"><stop stop-color="#8B5CF6"/><stop offset="1" stop-color="#EC4899"/></linearGradient></defs></svg>
EOF && cat > assets/icon-feature-3.svg <<'EOF'
<svg width="48" height="48" viewBox="0 0 48 48" fill="none" xmlns="http://www.w3.org/2000/svg"><rect width="48" height="48" rx="14" fill="url(#g)"/><rect x="13" y="13" width="22" height="22" rx="5" stroke="#fff" stroke-width="2.6"/><defs><linearGradient id="g" x1="6" y1="6" x2="42" y2="42"><stop stop-color="#F472B6"/><stop offset="1" stop-color="#A855F7"/></linearGradient></defs></svg>
EOF && cat > assets/icon-feature-4.svg <<'EOF'
<svg width="48" height="48" viewBox="0 0 48 48" fill="none" xmlns="http://www.w3.org/2000/svg"><rect width="48" height="48" rx="14" fill="url(#g)"/><path d="M14 32h20" stroke="#fff" stroke-width="2.6" stroke-linecap="round"/><defs><linearGradient id="g" x1="6" y1="6" x2="42" y2="42"><stop stop-color="#FB7185"/><stop offset="1" stop-color="#F59E0B"/></linearGradient></defs></svg>
EOF && cat > assets/icon-user-1.svg <<'EOF'
<svg width="48" height="48" viewBox="0 0 48 48" fill="none" xmlns="http://www.w3.org/2000/svg"><rect width="48" height="48" rx="14" fill="url(#g)"/><circle cx="24" cy="20" r="5" stroke="#fff" stroke-width="2.6"/><defs><linearGradient id="g" x1="6" y1="6" x2="42" y2="42"><stop stop-color="#22D3EE"/><stop offset="1" stop-color="#0284C7"/></linearGradient></defs></svg>
EOF && cat > assets/icon-user-2.svg <<'EOF'
<svg width="48" height="48" viewBox="0 0 48 48" fill="none" xmlns="http://www.w3.org/2000/svg"><rect width="48" height="48" rx="14" fill="url(#g)"/><path d="M14 31l10-14 10 14H14z" stroke="#fff" stroke-width="2.6"/><defs><linearGradient id="g" x1="6" y1="6" x2="42" y2="42"><stop stop-color="#A78BFA"/><stop offset="1" stop-color="#6366F1"/></linearGradient></defs></svg>
EOF && cat > assets/icon-user-3.svg <<'EOF'
<svg width="48" height="48" viewBox="0 0 48 48" fill="none" xmlns="http://www.w3.org/2000/svg"><rect width="48" height="48" rx="14" fill="url(#g)"/><circle cx="24" cy="24" r="10" stroke="#fff" stroke-width="2.6"/><defs><linearGradient id="g" x1="6" y1="6" x2="42" y2="42"><stop stop-color="#F472B6"/><stop offset="1" stop-color="#D946EF"/></linearGradient></defs></svg>
EOF && cat > assets/icon-legal-1.svg <<'EOF'
<svg width="48" height="48" viewBox="0 0 48 48" fill="none" xmlns="http://www.w3.org/2000/svg"><rect width="48" height="48" rx="14" fill="url(#g)"/><rect x="16" y="22" width="16" height="12" rx="2.5" stroke="#fff" stroke-width="2.6"/><defs><linearGradient id="g" x1="6" y1="6" x2="42" y2="42"><stop stop-color="#22D3EE"/><stop offset="1" stop-color="#2563EB"/></linearGradient></defs></svg>
EOF && cat > assets/icon-legal-2.svg <<'EOF'
<svg width="48" height="48" viewBox="0 0 48 48" fill="none" xmlns="http://www.w3.org/2000/svg"><rect width="48" height="48" rx="14" fill="url(#g)"/><rect x="15" y="12" width="18" height="24" rx="3" stroke="#fff" stroke-width="2.6"/><defs><linearGradient id="g" x1="6" y1="6" x2="42" y2="42"><stop stop-color="#818CF8"/><stop offset="1" stop-color="#A855F7"/></linearGradient></defs></svg>
